<svg width="20" height="21" viewBox="0 0 20 21" fill="none" xmlns="http://www.w3.org/2000/svg">
<path d="M15.95 11.4845C15.9833 11.2345 16 10.9762 16 10.7012C16 10.4345 15.9833 10.1678 15.9417 9.91784L17.6333 8.60117C17.7062 8.54109 17.756 8.45759 17.7743 8.3649C17.7925 8.27221 17.778 8.17606 17.7333 8.09284L16.1333 5.32617C16.0862 5.24248 16.011 5.17815 15.921 5.1446C15.831 5.11104 15.7321 5.11042 15.6417 5.14284L13.65 5.94284C13.2333 5.62617 12.7917 5.35951 12.3 5.15951L12 3.04284C11.9852 2.94745 11.9368 2.86051 11.8634 2.79782C11.79 2.73513 11.6965 2.70084 11.6 2.70117L8.4 2.70117C8.2 2.70117 8.04167 2.84284 8.00833 3.04284L7.70833 5.15951C7.21667 5.35951 6.76667 5.63451 6.35833 5.94284L4.36667 5.14284C4.18333 5.07617 3.975 5.14284 3.875 5.32617L2.28333 8.09284C2.18333 8.26784 2.21667 8.48451 2.38333 8.60117L4.075 9.91784C4.03333 10.1678 4 10.4428 4 10.7012C4 10.9595 4.01667 11.2345 4.05833 11.4845L2.36667 12.8012C2.29377 12.8613 2.24396 12.9448 2.22573 13.0375C2.20749 13.1301 2.22196 13.2263 2.26667 13.3095L3.86667 16.0762C3.96667 16.2595 4.175 16.3178 4.35833 16.2595L6.35 15.4595C6.76667 15.7762 7.20833 16.0428 7.7 16.2428L8 18.3595C8.04167 18.5595 8.2 18.7012 8.4 18.7012L11.6 18.7012C11.8 18.7012 11.9667 18.5595 11.9917 18.3595L12.2917 16.2428C12.7833 16.0428 13.2333 15.7762 13.6417 15.4595L15.6333 16.2595C15.8167 16.3262 16.025 16.2595 16.125 16.0762L17.725 13.3095C17.825 13.1262 17.7833 12.9178 17.625 12.8012L15.95 11.4845ZM10 13.7012C8.35 13.7012 7 12.3512 7 10.7012C7 9.05117 8.35 7.70117 10 7.70117C11.65 7.70117 13 9.05117 13 10.7012C13 12.3512 11.65 13.7012 10 13.7012Z" fill="#171A1F"/>
</svg>
