<svg width="14" height="15" viewBox="0 0 14 15" fill="none" xmlns="http://www.w3.org/2000/svg">
<g clip-path="url(#clip0_2_63)">
<path d="M1.75 1.8512L6.41667 1.8512L6.41667 6.51786L1.75 6.51786L1.75 1.8512ZM1.75 7.68453L6.41667 7.68453L6.41667 12.3512L1.75 12.3512L1.75 7.68453ZM7.58333 1.8512L12.25 1.8512L12.25 6.51786L7.58333 6.51786L7.58333 1.8512ZM7.58333 7.68453L12.25 7.68453V12.3512H7.58333L7.58333 7.68453ZM8.75 3.01786V5.3512H11.0833V3.01786L8.75 3.01786ZM8.75 8.8512L8.75 11.1845H11.0833V8.8512L8.75 8.8512ZM2.91667 3.01786L2.91667 5.3512L5.25 5.3512L5.25 3.01786L2.91667 3.01786ZM2.91667 8.8512L2.91667 11.1845H5.25V8.8512H2.91667Z" fill="#171A1F"/>
</g>
<defs>
<clipPath id="clip0_2_63">
<rect width="14" height="14" fill="white" transform="translate(0 0.101196)"/>
</clipPath>
</defs>
</svg>
