<svg width="17" height="18" viewBox="0 0 17 18" fill="none" xmlns="http://www.w3.org/2000/svg">
<path d="M3.94643 5.66548C3.62438 5.66548 3.31552 5.53755 3.0878 5.30982C2.86008 5.0821 2.73214 4.77324 2.73214 4.45119C2.73214 4.12915 2.86008 3.82029 3.0878 3.59256C3.31552 3.36484 3.62438 3.23691 3.94643 3.23691C4.26848 3.23691 4.57734 3.36484 4.80506 3.59256C5.03278 3.82029 5.16071 4.12915 5.16071 4.45119C5.16071 4.77324 5.03278 5.0821 4.80506 5.30982C4.57734 5.53755 4.26848 5.66548 3.94643 5.66548Z" stroke="#171A1F" stroke-width="1.45714" stroke-miterlimit="10" stroke-linecap="square"/>
<path d="M2.42857 14.7726L2.42857 11.7369H1.82143L1.82143 9.30834C1.82143 8.82526 2.01333 8.36198 2.35491 8.02039C2.6965 7.67881 3.15979 7.48691 3.64286 7.48691H4.25C4.73307 7.48691 5.19636 7.67881 5.53795 8.02039C5.87953 8.36198 6.07143 8.82526 6.07143 9.30834V11.7369H5.46429L5.46429 14.7726H2.42857Z" stroke="#171A1F" stroke-width="1.45714" stroke-miterlimit="10" stroke-linecap="square"/>
<path d="M13.0536 5.66548C12.7315 5.66548 12.4227 5.53755 12.1949 5.30982C11.9672 5.0821 11.8393 4.77324 11.8393 4.45119C11.8393 4.12915 11.9672 3.82029 12.1949 3.59256C12.4227 3.36484 12.7315 3.23691 13.0536 3.23691C13.3756 3.23691 13.6845 3.36484 13.9122 3.59256C14.1399 3.82029 14.2679 4.12915 14.2679 4.45119C14.2679 4.77324 14.1399 5.0821 13.9122 5.30982C13.6845 5.53755 13.3756 5.66548 13.0536 5.66548Z" stroke="#171A1F" stroke-width="1.45714" stroke-miterlimit="10" stroke-linecap="square"/>
<path d="M11.5357 14.7726V11.7369H10.9286L10.9286 9.30834C10.9286 8.82526 11.1205 8.36198 11.4621 8.02039C11.8036 7.67881 12.2669 7.48691 12.75 7.48691H13.3571C13.8402 7.48691 14.3035 7.67881 14.6451 8.02039C14.9867 8.36198 15.1786 8.82526 15.1786 9.30834V11.7369H14.5714L14.5714 14.7726H11.5357Z" stroke="#171A1F" stroke-width="1.45714" stroke-miterlimit="10" stroke-linecap="square"/>
<path d="M8.5 2.02264L8.5 15.3798" stroke="#171A1F" stroke-width="1.45714" stroke-miterlimit="10" stroke-linecap="square"/>
</svg>
